NunitoSans-ExtraLight.ufo
<glyph name="hyphen" format="2">
  <advance width="416"/>
  <unicode hex="002D"/>
  <outline>
    <contour>
      <point x="76" y="246" type="line"/>
      <point x="340" y="246" type="line"/>
      <point x="340" y="284" type="line"/>
      <point x="76" y="284" type="line"/>
    </contour>
  </outline>
</glyph>
<glyph name="I" format="2">
  <advance width="234"/>
  <unicode hex="0049"/>
  <anchor x="117" y="0" name="bottom"/>
  <anchor x="138" y="0" name="ogonek"/>
  <anchor x="117" y="705" name="top"/>
  <anchor x="28" y="705" name="topleft"/>
  <outline>
    <contour>
      <point x="96" y="0" type="line"/>
      <point x="138" y="0" type="line"/>
      <point x="138" y="705" type="line"/>
      <point x="96" y="705" type="line"/>
    </contour>
  </outline>
</glyph>
<glyph name="T" format="2">
  <advance width="586"/>
  <unicode hex="0054"/>
  <anchor x="293" y="0" name="bottom"/>
  <anchor x="293" y="358" name="center"/>
  <anchor x="293" y="705" name="top"/>
  <outline>
    <contour>
      <point x="272" y="0" type="line"/>
      <point x="314" y="0" type="line"/>
      <point x="314" y="666" type="line"/>
      <point x="583" y="666" type="line"/>
      <point x="583" y="705" type="line"/>
      <point x="3" y="705" type="line"/>
      <point x="3" y="666" type="line"/>
      <point x="272" y="666" type="line"/>
    </contour>
  </outline>
</glyph>
<glyph name="backslash" format="2">
  <advance width="256"/>
  <unicode hex="005C"/>
  <outline>
    <contour>
      <point x="236" y="-55" type="line"/>
      <point x="274" y="-44" type="line"/>
      <point x="20" y="744" type="line"/>
      <point x="-18" y="733" type="line"/>
    </contour>
  </outline>
</glyph>
<glyph name="b" format="2">
  <advance width="568"/>
  <unicode hex="0062"/>
  <anchor x="310" y="0" name="bottom"/>
  <anchor x="300" y="705" name="top"/>
  <outline>
    <contour>
      <point x="300" y="-8" type="curve" smooth="yes"/>
      <point x="431" y="-8"/>
      <point x="515" y="89"/>
      <point x="515" y="242" type="curve" smooth="yes"/>
      <point x="515" y="395"/>
      <point x="432" y="492"/>
      <point x="300" y="492" type="curve" smooth="yes"/>
      <point x="207" y="492"/>
      <point x="138" y="440"/>
      <point x="116" y="358" type="curve"/>
      <point x="127" y="358" type="line"/>
      <point x="127" y="705" type="line"/>
      <point x="85" y="705" type="line"/>
      <point x="85" y="0" type="line"/>
      <point x="127" y="0" type="line"/>
      <point x="127" y="126" type="line"/>
      <point x="116" y="126" type="line"/>
      <point x="138" y="44"/>
      <point x="207" y="-8"/>
    </contour>
    <contour>
      <point x="299" y="31" type="curve" smooth="yes"/>
      <point x="193" y="31"/>
      <point x="126" y="109"/>
      <point x="126" y="242" type="curve" smooth="yes"/>
      <point x="126" y="375"/>
      <point x="193" y="453"/>
      <point x="299" y="453" type="curve" smooth="yes"/>
      <point x="405" y="453"/>
      <point x="472" y="375"/>
      <point x="472" y="242" type="curve" smooth="yes"/>
      <point x="472" y="109"/>
      <point x="405" y="31"/>
    </contour>
  </outline>
</glyph>
<glyph name="r" format="2">
  <advance width="327"/>
  <unicode hex="0072"/>
  <anchor x="106" y="0" name="bottom"/>
  <anchor x="204" y="484" name="top"/>
  <outline>
    <contour>
      <point x="85" y="0" type="line"/>
      <point x="127" y="0" type="line"/>
      <point x="127" y="290" type="line" smooth="yes"/>
      <point x="127" y="385"/>
      <point x="185" y="445"/>
      <point x="284" y="454" type="curve" smooth="yes"/>
      <point x="318" y="458" type="line"/>
      <point x="313" y="496" type="line"/>
      <point x="292" y="494" type="line" smooth="yes"/>
      <point x="198" y="487"/>
      <point x="143" y="450"/>
      <point x="116" y="371" type="curve"/>
      <point x="126" y="371" type="line"/>
      <point x="126" y="484" type="line"/>
      <point x="85" y="484" type="line"/>
    </contour>
  </outline>
</glyph>
<glyph name="u" format="2">
  <advance width="545"/>
  <unicode hex="0075"/>
  <anchor x="273" y="0" name="bottom"/>
  <anchor x="460" y="0" name="ogonek"/>
  <anchor x="273" y="485" name="top"/>
  <anchor x="420" y="484" name="topright"/>
  <outline>
    <contour>
      <point x="254" y="-8" type="curve" smooth="yes"/>
      <point x="337" y="-8"/>
      <point x="406" y="37"/>
      <point x="431" y="121" type="curve"/>
      <point x="419" y="121" type="line"/>
      <point x="419" y="0" type="line"/>
      <point x="460" y="0" type="line"/>
      <point x="460" y="484" type="line"/>
      <point x="418" y="484" type="line"/>
      <point x="418" y="207" type="line" smooth="yes"/>
      <point x="418" y="101"/>
      <point x="351" y="31"/>
      <point x="254" y="31" type="curve" smooth="yes"/>
      <point x="165" y="31"/>
      <point x="125" y="79"/>
      <point x="125" y="181" type="curve" smooth="yes"/>
      <point x="125" y="484" type="line"/>
      <point x="83" y="484" type="line"/>
      <point x="83" y="177" type="line" smooth="yes"/>
      <point x="83" y="56"/>
      <point x="139" y="-8"/>
    </contour>
  </outline>
</glyph>
<glyph name="y" format="2">
  <advance width="504"/>
  <unicode hex="0079"/>
  <anchor x="371" y="0" name="bottom"/>
  <anchor x="252" y="484" name="top"/>
  <outline>
    <contour>
      <point x="152" y="-180" type="line"/>
      <point x="199" y="-180" type="line"/>
      <point x="483" y="484" type="line"/>
      <point x="435" y="484" type="line"/>
      <point x="240" y="15" type="line"/>
      <point x="264" y="15" type="line"/>
      <point x="70" y="484" type="line"/>
      <point x="22" y="484" type="line"/>
      <point x="233" y="-13" type="line"/>
      <point x="233" y="7" type="line"/>
    </contour>
  </outline>
</glyph>
<glyph name="paragraph" format="2">
  <advance width="556"/>
  <unicode hex="00B6"/>
  <outline>
    <contour>
      <point x="239" y="-180" type="line"/>
      <point x="281" y="-180" type="line"/>
      <point x="281" y="667" type="line"/>
      <point x="418" y="667" type="line"/>
      <point x="418" y="-180" type="line"/>
      <point x="460" y="-180" type="line"/>
      <point x="460" y="705" type="line"/>
      <point x="240" y="705" type="line" smooth="yes"/>
      <point x="126" y="705"/>
      <point x="53" y="626"/>
      <point x="53" y="520" type="curve" smooth="yes"/>
      <point x="53" y="414"/>
      <point x="126" y="335"/>
      <point x="239" y="335" type="curve"/>
    </contour>
  </outline>
</glyph>
<glyph name="idotless" format="2">
  <advance width="212"/>
  <unicode hex="0131"/>
  <anchor x="106" y="0" name="bottom"/>
  <anchor x="127" y="0" name="ogonek"/>
  <anchor x="106" y="484" name="top"/>
  <outline>
    <contour>
      <point x="85" y="0" type="line"/>
      <point x="127" y="0" type="line"/>
      <point x="127" y="484" type="line"/>
      <point x="85" y="484" type="line"/>
    </contour>
  </outline>
</glyph>
<glyph name="schwa" format="2">
  <advance width="523"/>
  <unicode hex="0259"/>
  <outline>
    <contour>
      <point x="252" y="-8" type="curve" smooth="yes"/>
      <point x="382" y="-8"/>
      <point x="470" y="90"/>
      <point x="470" y="245" type="curve" smooth="yes"/>
      <point x="470" y="398"/>
      <point x="381" y="492"/>
      <point x="237" y="492" type="curve" smooth="yes"/>
      <point x="168" y="492"/>
      <point x="97" y="466"/>
      <point x="56" y="424" type="curve"/>
      <point x="76" y="391" type="line"/>
      <point x="128" y="434"/>
      <point x="179" y="453"/>
      <point x="239" y="453" type="curve" smooth="yes"/>
      <point x="358" y="453"/>
      <point x="427" y="375"/>
      <point x="427" y="243" type="curve" smooth="yes"/>
      <point x="427" y="237" type="line" smooth="yes"/>
      <point x="427" y="106"/>
      <point x="358" y="30"/>
      <point x="253" y="30" type="curve" smooth="yes"/>
      <point x="145" y="30"/>
      <point x="89" y="100"/>
      <point x="89" y="226" type="curve"/>
      <point x="70" y="213" type="line"/>
      <point x="444" y="213" type="line"/>
      <point x="444" y="250" type="line"/>
      <point x="48" y="250" type="line"/>
      <point x="48" y="227" type="line" smooth="yes"/>
      <point x="48" y="78"/>
      <point x="123" y="-8"/>
    </contour>
  </outline>
</glyph>
<glyph name="ringhalfleft" format="2">
  <advance width="500"/>
  <unicode hex="02BF"/>
  <anchor x="250" y="484" name="_top"/>
  <anchor x="250" y="685" name="top"/>
  <outline>
    <contour>
      <point x="250" y="556" type="curve"/>
      <point x="250" y="591" type="line"/>
      <point x="216" y="591"/>
      <point x="193" y="618"/>
      <point x="193" y="650" type="curve" smooth="yes"/>
      <point x="193" y="683"/>
      <point x="216" y="709"/>
      <point x="250" y="709" type="curve"/>
      <point x="250" y="745" type="line"/>
      <point x="194" y="745"/>
      <point x="153" y="703"/>
      <point x="153" y="650" type="curve" smooth="yes"/>
      <point x="153" y="597"/>
      <point x="194" y="556"/>
    </contour>
  </outline>
</glyph>
<glyph name="tildecomb" format="2">
  <unicode hex="0303"/>
  <anchor x="0" y="484" name="_top"/>
  <anchor x="0" y="685" name="top"/>
  <outline>
    <contour>
      <point x="-136" y="595" type="line"/>
      <point x="-128" y="651"/>
      <point x="-107" y="682"/>
      <point x="-72" y="682" type="curve" smooth="yes"/>
      <point x="-54" y="682"/>
      <point x="-39" y="672"/>
      <point x="-10" y="644" type="curve" smooth="yes"/>
      <point x="24" y="612"/>
      <point x="46" y="597"/>
      <point x="73" y="597" type="curve" smooth="yes"/>
      <point x="125" y="597"/>
      <point x="160" y="641"/>
      <point x="168" y="718" type="curve"/>
      <point x="136" y="720" type="line"/>
      <point x="128" y="664"/>
      <point x="107" y="633"/>
      <point x="72" y="633" type="curve" smooth="yes"/>
      <point x="55" y="633"/>
      <point x="39" y="642"/>
      <point x="10" y="671" type="curve" smooth="yes"/>
      <point x="-22" y="703"/>
      <point x="-44" y="718"/>
      <point x="-72" y="718" type="curve" smooth="yes"/>
      <point x="-125" y="718"/>
      <point x="-160" y="674"/>
      <point x="-168" y="597" type="curve"/>
    </contour>
  </outline>
</glyph>
<glyph name="ringcomb" format="2">
  <unicode hex="030A"/>
  <anchor x="0" y="484" name="_top"/>
  <anchor x="0" y="685" name="top"/>
  <outline>
    <contour>
      <point x="0" y="547" type="curve" smooth="yes"/>
      <point x="63" y="547"/>
      <point x="112" y="596"/>
      <point x="112" y="657" type="curve" smooth="yes"/>
      <point x="112" y="718"/>
      <point x="63" y="767"/>
      <point x="0" y="767" type="curve" smooth="yes"/>
      <point x="-63" y="767"/>
      <point x="-112" y="718"/>
      <point x="-112" y="657" type="curve" smooth="yes"/>
      <point x="-112" y="596"/>
      <point x="-63" y="547"/>
    </contour>
    <contour>
      <point x="0" y="579" type="curve" smooth="yes"/>
      <point x="-46" y="579"/>
      <point x="-78" y="613"/>
      <point x="-78" y="657" type="curve" smooth="yes"/>
      <point x="-78" y="701"/>
      <point x="-46" y="735"/>
      <point x="0" y="735" type="curve" smooth="yes"/>
      <point x="46" y="735"/>
      <point x="78" y="701"/>
      <point x="78" y="657" type="curve" smooth="yes"/>
      <point x="78" y="613"/>
      <point x="46" y="579"/>
    </contour>
  </outline>
</glyph>
<glyph name="commaturnedabovecomb" format="2">
  <unicode hex="0312"/>
  <anchor x="0" y="484" name="_top"/>
  <anchor x="0" y="685" name="top"/>
  <outline>
    <contour>
      <point x="-35" y="570" type="line"/>
      <point x="35" y="570" type="line"/>
      <point x="35" y="635" type="line"/>
      <point x="-15" y="635" type="line"/>
      <point x="0" y="628" type="line"/>
      <point x="0" y="661"/>
      <point x="7" y="688"/>
      <point x="38" y="723" type="curve"/>
      <point x="12" y="743" type="line"/>
      <point x="-19" y="711"/>
      <point x="-35" y="669"/>
      <point x="-35" y="624" type="curve" smooth="yes"/>
    </contour>
  </outline>
</glyph>
<glyph name="horncomb" format="2">
  <unicode hex="031B"/>
  <anchor x="-1" y="484" name="_topright"/>
  <outline>
    <contour>
      <point x="14" y="446" type="line"/>
      <point x="108" y="450"/>
      <point x="159" y="502"/>
      <point x="159" y="596" type="curve" smooth="yes"/>
      <point x="159" y="616" type="line"/>
      <point x="119" y="616" type="line"/>
      <point x="119" y="604" type="line" smooth="yes"/>
      <point x="119" y="527"/>
      <point x="96" y="485"/>
      <point x="-1" y="484" type="curve"/>
      <point x="-1" y="459" type="line"/>
    </contour>
  </outline>
</glyph>
<glyph name="cedillacomb" format="2">
  <unicode hex="0327"/>
  <anchor x="0" y="0" name="_bottom"/>
  <outline>
    <contour>
      <point x="5" y="-190" type="curve" smooth="yes"/>
      <point x="68" y="-190"/>
      <point x="111" y="-158"/>
      <point x="111" y="-111" type="curve" smooth="yes"/>
      <point x="111" y="-70"/>
      <point x="76" y="-46"/>
      <point x="33" y="-46" type="curve" smooth="yes"/>
      <point x="19" y="-46"/>
      <point x="4" y="-49"/>
      <point x="-12" y="-53" type="curve"/>
      <point x="6" y="-55" type="line"/>
      <point x="19" y="20" type="line"/>
      <point x="-19" y="20" type="line"/>
      <point x="-34" y="-76" type="line"/>
      <point x="-19" y="-89" type="line"/>
      <point x="3" y="-81"/>
      <point x="17" y="-79"/>
      <point x="32" y="-79" type="curve" smooth="yes"/>
      <point x="58" y="-79"/>
      <point x="71" y="-91"/>
      <point x="71" y="-111" type="curve" smooth="yes"/>
      <point x="71" y="-139"/>
      <point x="45" y="-154"/>
      <point x="9" y="-154" type="curve" smooth="yes"/>
      <point x="-23" y="-154"/>
      <point x="-39" y="-150"/>
      <point x="-64" y="-138" type="curve"/>
      <point x="-73" y="-172" type="line"/>
      <point x="-55" y="-183"/>
      <point x="-26" y="-190"/>
    </contour>
  </outline>
</glyph>
<glyph name="el-cy" format="2">
  <advance width="554"/>
  <unicode hex="043B"/>
  <anchor x="424" y="0" name="bottomright"/>
  <outline>
    <contour>
      <point x="48" y="-9" type="line"/>
      <point x="155" y="45"/>
      <point x="190" y="138"/>
      <point x="190" y="382" type="curve" smooth="yes"/>
      <point x="190" y="448" type="line"/>
      <point x="424" y="448" type="line"/>
      <point x="424" y="0" type="line"/>
      <point x="466" y="0" type="line"/>
      <point x="466" y="484" type="line"/>
      <point x="149" y="484" type="line"/>
      <point x="149" y="383" type="line" smooth="yes"/>
      <point x="149" y="152"/>
      <point x="122" y="73"/>
      <point x="26" y="24" type="curve"/>
    </contour>
  </outline>
</glyph>
<glyph name="yeru-cy" format="2">
  <advance width="689"/>
  <unicode hex="044B"/>
  <anchor x="345" y="484" name="top"/>
  <outline>
    <contour>
      <point x="88" y="0" type="line"/>
      <point x="293" y="0" type="line" smooth="yes"/>
      <point x="412" y="0"/>
      <point x="475" y="55"/>
      <point x="475" y="150" type="curve" smooth="yes"/>
      <point x="475" y="245"/>
      <point x="412" y="300"/>
      <point x="293" y="300" type="curve" smooth="yes"/>
      <point x="130" y="300" type="line"/>
      <point x="130" y="484" type="line"/>
      <point x="88" y="484" type="line"/>
    </contour>
    <contour>
      <point x="130" y="36" type="line"/>
      <point x="130" y="264" type="line"/>
      <point x="295" y="264" type="line" smooth="yes"/>
      <point x="381" y="264"/>
      <point x="431" y="228"/>
      <point x="431" y="150" type="curve" smooth="yes"/>
      <point x="431" y="72"/>
      <point x="381" y="36"/>
      <point x="295" y="36" type="curve" smooth="yes"/>
    </contour>
    <contour>
      <point x="559" y="0" type="line"/>
      <point x="601" y="0" type="line"/>
      <point x="601" y="484" type="line"/>
      <point x="559" y="484" type="line"/>
    </contour>
  </outline>
</glyph>
<glyph name="dje-cy" format="2">
  <advance width="559"/>
  <unicode hex="0452"/>
  <outline>
    <contour>
      <point x="299" y="-185" type="line"/>
      <point x="434" y="-157"/>
      <point x="473" y="-82"/>
      <point x="473" y="55" type="curve" smooth="yes"/>
      <point x="473" y="308" type="line" smooth="yes"/>
      <point x="473" y="432"/>
      <point x="414" y="492"/>
      <point x="297" y="492" type="curve" smooth="yes"/>
      <point x="214" y="492"/>
      <point x="141" y="446"/>
      <point x="118" y="368" type="curve"/>
      <point x="130" y="368" type="line"/>
      <point x="130" y="562" type="line"/>
      <point x="327" y="562" type="line"/>
      <point x="327" y="598" type="line"/>
      <point x="130" y="598" type="line"/>
      <point x="130" y="705" type="line"/>
      <point x="88" y="705" type="line"/>
      <point x="88" y="598" type="line"/>
      <point x="-7" y="598" type="line"/>
      <point x="-7" y="562" type="line"/>
      <point x="88" y="562" type="line"/>
      <point x="88" y="0" type="line"/>
      <point x="130" y="0" type="line"/>
      <point x="130" y="278" type="line" smooth="yes"/>
      <point x="130" y="384"/>
      <point x="197" y="453"/>
      <point x="300" y="453" type="curve" smooth="yes"/>
      <point x="392" y="453"/>
      <point x="431" y="406"/>
      <point x="431" y="304" type="curve" smooth="yes"/>
      <point x="431" y="52" type="line" smooth="yes"/>
      <point x="431" y="-62"/>
      <point x="405" y="-123"/>
      <point x="290" y="-148" type="curve"/>
    </contour>
  </outline>
</glyph>
<glyph name="lje-cy" format="2">
  <advance width="859"/>
  <unicode hex="0459"/>
  <outline>
    <contour>
      <point x="48" y="-9" type="line"/>
      <point x="155" y="45"/>
      <point x="190" y="138"/>
      <point x="190" y="382" type="curve" smooth="yes"/>
      <point x="190" y="448" type="line"/>
      <point x="424" y="448" type="line"/>
      <point x="424" y="0" type="line"/>
      <point x="629" y="0" type="line" smooth="yes"/>
      <point x="748" y="0"/>
      <point x="811" y="55"/>
      <point x="811" y="150" type="curve" smooth="yes"/>
      <point x="811" y="245"/>
      <point x="748" y="300"/>
      <point x="629" y="300" type="curve" smooth="yes"/>
      <point x="466" y="300" type="line"/>
      <point x="466" y="484" type="line"/>
      <point x="149" y="484" type="line"/>
      <point x="149" y="383" type="line" smooth="yes"/>
      <point x="149" y="152"/>
      <point x="122" y="73"/>
      <point x="26" y="24" type="curve"/>
    </contour>
    <contour>
      <point x="466" y="36" type="line"/>
      <point x="466" y="264" type="line"/>
      <point x="631" y="264" type="line" smooth="yes"/>
      <point x="717" y="264"/>
      <point x="767" y="228"/>
      <point x="767" y="150" type="curve" smooth="yes"/>
      <point x="767" y="72"/>
      <point x="717" y="36"/>
      <point x="631" y="36" type="curve" smooth="yes"/>
    </contour>
  </outline>
</glyph>
<glyph name="Iishorttail-cy" format="2">
  <advance width="742"/>
  <unicode hex="048A"/>
  <outline>
    <contour>
      <point x="637" y="-150" type="line"/>
      <point x="675" y="-150" type="line"/>
      <point x="738" y="39" type="line"/>
      <point x="636" y="39" type="line"/>
      <point x="636" y="705" type="line"/>
      <point x="601" y="705" type="line"/>
      <point x="124" y="56" type="line"/>
      <point x="135" y="52" type="line"/>
      <point x="135" y="705" type="line"/>
      <point x="96" y="705" type="line"/>
      <point x="96" y="0" type="line"/>
      <point x="130" y="0" type="line"/>
      <point x="608" y="651" type="line"/>
      <point x="597" y="655" type="line"/>
      <point x="597" y="0" type="line"/>
      <point x="687" y="0" type="line"/>
    </contour>
    <contour>
      <point x="366" y="760" type="curve" smooth="yes"/>
      <point x="436" y="760"/>
      <point x="507" y="786"/>
      <point x="554" y="884" type="curve"/>
      <point x="522" y="897" type="line"/>
      <point x="478" y="820"/>
      <point x="436" y="796"/>
      <point x="365" y="796" type="curve" smooth="yes"/>
      <point x="296" y="796"/>
      <point x="247" y="828"/>
      <point x="218" y="898" type="curve"/>
      <point x="185" y="884" type="line"/>
      <point x="220" y="793"/>
      <point x="296" y="760"/>
    </contour>
  </outline>
</glyph>
<glyph name="Ghemiddlehook-cy" format="2">
  <advance width="641"/>
  <unicode hex="0494"/>
  <outline>
    <contour>
      <point x="392" y="-188" type="curve" smooth="yes"/>
      <point x="512" y="-188"/>
      <point x="579" y="-108"/>
      <point x="579" y="43" type="curve" smooth="yes"/>
      <point x="579" y="146" type="line" smooth="yes"/>
      <point x="579" y="333"/>
      <point x="492" y="429"/>
      <point x="316" y="429" type="curve" smooth="yes"/>
      <point x="246" y="429"/>
      <point x="178" y="413"/>
      <point x="138" y="387" type="curve"/>
      <point x="138" y="666" type="line"/>
      <point x="531" y="666" type="line"/>
      <point x="531" y="705" type="line"/>
      <point x="96" y="705" type="line"/>
      <point x="96" y="0" type="line"/>
      <point x="138" y="0" type="line"/>
      <point x="138" y="341" type="line"/>
      <point x="185" y="373"/>
      <point x="242" y="388"/>
      <point x="315" y="388" type="curve" smooth="yes"/>
      <point x="467" y="388"/>
      <point x="537" y="308"/>
      <point x="537" y="140" type="curve" smooth="yes"/>
      <point x="537" y="42" type="line" smooth="yes"/>
      <point x="537" y="-86"/>
      <point x="486" y="-149"/>
      <point x="391" y="-149" type="curve" smooth="yes"/>
      <point x="352" y="-149"/>
      <point x="319" y="-142"/>
      <point x="293" y="-130" type="curve"/>
      <point x="281" y="-167" type="line"/>
      <point x="307" y="-179"/>
      <point x="348" y="-188"/>
    </contour>
  </outline>
</glyph>
<glyph name="kaverticalstroke-cy" format="2">
  <advance width="497"/>
  <unicode hex="049D"/>
  <outline>
    <contour>
      <point x="88" y="0" type="line"/>
      <point x="130" y="0" type="line"/>
      <point x="130" y="233" type="line"/>
      <point x="190" y="233" type="line"/>
      <point x="190" y="110" type="line"/>
      <point x="226" y="110" type="line"/>
      <point x="226" y="242" type="line"/>
      <point x="208" y="233" type="line"/>
      <point x="218" y="233" type="line" smooth="yes"/>
      <point x="288" y="233"/>
      <point x="312" y="213"/>
      <point x="351" y="150" type="curve" smooth="yes"/>
      <point x="444" y="0" type="line"/>
      <point x="490" y="0" type="line"/>
      <point x="393" y="156" type="line" smooth="yes"/>
      <point x="339" y="242"/>
      <point x="315" y="262"/>
      <point x="258" y="268" type="curve"/>
      <point x="277" y="256" type="line"/>
      <point x="462" y="484" type="line"/>
      <point x="413" y="484" type="line"/>
      <point x="238" y="269" type="line"/>
      <point x="226" y="269" type="line"/>
      <point x="226" y="384" type="line"/>
      <point x="190" y="384" type="line"/>
      <point x="190" y="269" type="line"/>
      <point x="130" y="269" type="line"/>
      <point x="130" y="484" type="line"/>
      <point x="88" y="484" type="line"/>
    </contour>
  </outline>
</glyph>
<glyph name="enghe-cy" format="2">
  <advance width="727"/>
  <unicode hex="04A5"/>
  <outline>
    <contour>
      <point x="88" y="0" type="line"/>
      <point x="130" y="0" type="line"/>
      <point x="130" y="232" type="line"/>
      <point x="438" y="232" type="line"/>
      <point x="438" y="0" type="line"/>
      <point x="480" y="0" type="line"/>
      <point x="480" y="447" type="line"/>
      <point x="715" y="447" type="line"/>
      <point x="715" y="484" type="line"/>
      <point x="438" y="484" type="line"/>
      <point x="438" y="269" type="line"/>
      <point x="130" y="269" type="line"/>
      <point x="130" y="484" type="line"/>
      <point x="88" y="484" type="line"/>
    </contour>
  </outline>
</glyph>
<glyph name="tedescender-cy" format="2">
  <advance width="418"/>
  <unicode hex="04AD"/>
  <outline>
    <contour>
      <point x="264" y="-130" type="line"/>
      <point x="304" y="-130" type="line"/>
      <point x="304" y="37" type="line"/>
      <point x="230" y="37" type="line"/>
      <point x="230" y="447" type="line"/>
      <point x="415" y="447" type="line"/>
      <point x="415" y="484" type="line"/>
      <point x="3" y="484" type="line"/>
      <point x="3" y="447" type="line"/>
      <point x="188" y="447" type="line"/>
      <point x="188" y="0" type="line"/>
      <point x="264" y="0" type="line"/>
    </contour>
  </outline>
</glyph>
<glyph name="tetse-cy" format="2">
  <advance width="656"/>
  <unicode hex="04B5"/>
  <outline>
    <contour>
      <point x="584" y="-130" type="line"/>
      <point x="622" y="-130" type="line"/>
      <point x="622" y="36" type="line"/>
      <point x="548" y="36" type="line"/>
      <point x="548" y="484" type="line"/>
      <point x="506" y="484" type="line"/>
      <point x="506" y="36" type="line"/>
      <point x="205" y="36" type="line"/>
      <point x="205" y="447" type="line"/>
      <point x="365" y="447" type="line"/>
      <point x="365" y="484" type="line"/>
      <point x="3" y="484" type="line"/>
      <point x="3" y="447" type="line"/>
      <point x="163" y="447" type="line"/>
      <point x="163" y="0" type="line"/>
      <point x="584" y="0" type="line"/>
    </contour>
  </outline>
</glyph>
<glyph name="Cheabkhasian-cy" format="2">
  <advance width="888"/>
  <unicode hex="04BC"/>
  <anchor x="576" y="0" name="ogonek"/>
  <outline>
    <contour>
      <point x="553" y="-8" type="curve" smooth="yes"/>
      <point x="644" y="-8"/>
      <point x="730" y="20"/>
      <point x="795" y="80" type="curve"/>
      <point x="774" y="115" type="line"/>
      <point x="706" y="55"/>
      <point x="635" y="33"/>
      <point x="554" y="33" type="curve" smooth="yes"/>
      <point x="357" y="33"/>
      <point x="253" y="145"/>
      <point x="249" y="341" type="curve"/>
      <point x="236" y="329" type="line"/>
      <point x="821" y="329" type="line"/>
      <point x="821" y="357" type="line" smooth="yes"/>
      <point x="821" y="573"/>
      <point x="718" y="713"/>
      <point x="518" y="713" type="curve" smooth="yes"/>
      <point x="324" y="713"/>
      <point x="207" y="579"/>
      <point x="204" y="360" type="curve"/>
      <point x="210" y="368" type="line"/>
      <point x="186" y="368" type="line" smooth="yes"/>
      <point x="105" y="368"/>
      <point x="67" y="403"/>
      <point x="67" y="486" type="curve" smooth="yes"/>
      <point x="67" y="542" type="line"/>
      <point x="25" y="542" type="line"/>
      <point x="25" y="483" type="line" smooth="yes"/>
      <point x="25" y="380"/>
      <point x="80" y="329"/>
      <point x="187" y="329" type="curve" smooth="yes"/>
      <point x="215" y="329" type="line"/>
      <point x="204" y="339" type="line"/>
      <point x="209" y="123"/>
      <point x="334" y="-8"/>
    </contour>
    <contour>
      <point x="519" y="672" type="curve" smooth="yes"/>
      <point x="689" y="672"/>
      <point x="778" y="559"/>
      <point x="778" y="352" type="curve"/>
      <point x="789" y="368" type="line"/>
      <point x="238" y="368" type="line"/>
      <point x="249" y="359" type="line"/>
      <point x="251" y="557"/>
      <point x="349" y="672"/>
    </contour>
  </outline>
</glyph>
<glyph name="Eltail-cy" format="2">
  <advance width="741"/>
  <unicode hex="04C5"/>
  <outline>
    <contour>
      <point x="633" y="-150" type="line"/>
      <point x="671" y="-150" type="line"/>
      <point x="734" y="39" type="line"/>
      <point x="635" y="39" type="line"/>
      <point x="635" y="705" type="line"/>
      <point x="195" y="705" type="line"/>
      <point x="195" y="495" type="line" smooth="yes"/>
      <point x="195" y="160"/>
      <point x="123" y="78"/>
      <point x="20" y="25" type="curve"/>
      <point x="37" y="-13" type="line"/>
      <point x="166" y="51"/>
      <point x="235" y="169"/>
      <point x="235" y="485" type="curve" smooth="yes"/>
      <point x="235" y="666" type="line"/>
      <point x="593" y="666" type="line"/>
      <point x="593" y="0" type="line"/>
      <point x="683" y="0" type="line"/>
    </contour>
  </outline>
</glyph>
<glyph name="hahook-cy" format="2">
  <advance width="512"/>
  <unicode hex="04FD"/>
  <outline>
    <contour>
      <point x="326" y="-183" type="line"/>
      <point x="416" y="-174"/>
      <point x="471" y="-129"/>
      <point x="471" y="-51" type="curve" smooth="yes"/>
      <point x="471" y="4"/>
      <point x="444" y="47"/>
      <point x="381" y="125" type="curve" smooth="yes"/>
      <point x="274" y="259" type="line"/>
      <point x="274" y="240" type="line"/>
      <point x="470" y="484" type="line"/>
      <point x="419" y="484" type="line"/>
      <point x="249" y="270" type="line"/>
      <point x="264" y="270" type="line"/>
      <point x="94" y="484" type="line"/>
      <point x="43" y="484" type="line"/>
      <point x="241" y="237" type="line"/>
      <point x="241" y="263" type="line"/>
      <point x="32" y="0" type="line"/>
      <point x="83" y="0" type="line"/>
      <point x="264" y="227" type="line"/>
      <point x="248" y="227" type="line"/>
      <point x="349" y="100" type="line" smooth="yes"/>
      <point x="408" y="25"/>
      <point x="431" y="-10"/>
      <point x="431" y="-51" type="curve" smooth="yes"/>
      <point x="431" y="-110"/>
      <point x="392" y="-138"/>
      <point x="317" y="-148" type="curve"/>
    </contour>
  </outline>
</glyph>
<glyph name="Pedescender-cy" format="2">
  <advance width="780"/>
  <unicode hex="0524"/>
  <outline>
    <contour>
      <point x="710" y="-150" type="line"/>
      <point x="750" y="-150" type="line"/>
      <point x="750" y="39" type="line"/>
      <point x="650" y="39" type="line"/>
      <point x="650" y="705" type="line"/>
      <point x="96" y="705" type="line"/>
      <point x="96" y="0" type="line"/>
      <point x="138" y="0" type="line"/>
      <point x="138" y="666" type="line"/>
      <point x="608" y="666" type="line"/>
      <point x="608" y="0" type="line"/>
      <point x="710" y="0" type="line"/>
    </contour>
  </outline>
</glyph>
<glyph name="bullet" format="2">
  <advance width="524"/>
  <unicode hex="2022"/>
  <outline>
    <contour>
      <point x="262" y="88" type="curve" smooth="yes"/>
      <point x="361" y="88"/>
      <point x="443" y="167"/>
      <point x="443" y="265" type="curve" smooth="yes"/>
      <point x="443" y="367"/>
      <point x="358" y="443"/>
      <point x="262" y="443" type="curve" smooth="yes"/>
      <point x="157" y="443"/>
      <point x="81" y="356"/>
      <point x="81" y="265" type="curve" smooth="yes"/>
      <point x="81" y="165"/>
      <point x="164" y="88"/>
    </contour>
  </outline>
</glyph>
<glyph name="guilsinglleft" format="2">
  <advance width="236"/>
  <unicode hex="2039"/>
  <outline>
    <contour>
      <point x="152" y="95" type="line"/>
      <point x="186" y="106" type="line"/>
      <point x="105" y="265" type="line"/>
      <point x="186" y="423" type="line"/>
      <point x="152" y="435" type="line"/>
      <point x="60" y="276" type="line"/>
      <point x="60" y="254" type="line"/>
    </contour>
  </outline>
</glyph>
<glyph name="fraction" format="2">
  <advance width="157"/>
  <unicode hex="2044"/>
  <outline>
    <contour>
      <point x="-116" y="-21" type="line"/>
      <point x="304" y="707" type="line"/>
      <point x="273" y="726" type="line"/>
      <point x="-147" y="-2" type="line"/>
    </contour>
  </outline>
</glyph>
<glyph name="Ohm" format="2">
  <advance width="600"/>
  <unicode hex="2126"/>
  <outline>
    <contour>
      <point x="52" y="0" type="line"/>
      <point x="254" y="0" type="line"/>
      <point x="254" y="36" type="line"/>
      <point x="146" y="137"/>
      <point x="107" y="254"/>
      <point x="107" y="394" type="curve" smooth="yes"/>
      <point x="107" y="570"/>
      <point x="169" y="672"/>
      <point x="300" y="672" type="curve" smooth="yes"/>
      <point x="432" y="672"/>
      <point x="493" y="572"/>
      <point x="493" y="394" type="curve" smooth="yes"/>
      <point x="493" y="254"/>
      <point x="454" y="137"/>
      <point x="346" y="36" type="curve"/>
      <point x="346" y="0" type="line"/>
      <point x="548" y="0" type="line"/>
      <point x="548" y="38" type="line"/>
      <point x="371" y="38" type="line"/>
      <point x="371" y="22" type="line"/>
      <point x="484" y="109"/>
      <point x="538" y="234"/>
      <point x="538" y="394" type="curve" smooth="yes"/>
      <point x="538" y="590"/>
      <point x="457" y="713"/>
      <point x="300" y="713" type="curve" smooth="yes"/>
      <point x="144" y="713"/>
      <point x="62" y="589"/>
      <point x="62" y="394" type="curve" smooth="yes"/>
      <point x="62" y="234"/>
      <point x="116" y="109"/>
      <point x="229" y="22" type="curve"/>
      <point x="229" y="38" type="line"/>
      <point x="52" y="38" type="line"/>
    </contour>
  </outline>
</glyph>
<glyph name="partialdiff" format="2">
  <advance width="600"/>
  <unicode hex="2202"/>
  <outline>
    <contour>
      <point x="298" y="-8" type="curve" smooth="yes"/>
      <point x="447" y="-8"/>
      <point x="534" y="104"/>
      <point x="534" y="307" type="curve" smooth="yes"/>
      <point x="534" y="572"/>
      <point x="425" y="713"/>
      <point x="209" y="713" type="curve" smooth="yes"/>
      <point x="188" y="713"/>
      <point x="174" y="711"/>
      <point x="153" y="708" type="curve"/>
      <point x="153" y="676" type="line"/>
      <point x="203" y="676" type="line" smooth="yes"/>
      <point x="387" y="676"/>
      <point x="483" y="563"/>
      <point x="490" y="344" type="curve"/>
      <point x="499" y="344" type="line"/>
      <point x="467" y="430"/>
      <point x="395" y="475"/>
      <point x="299" y="475" type="curve" smooth="yes"/>
      <point x="164" y="475"/>
      <point x="66" y="373"/>
      <point x="66" y="231" type="curve" smooth="yes"/>
      <point x="66" y="90"/>
      <point x="162" y="-8"/>
    </contour>
    <contour>
      <point x="300" y="31" type="curve" smooth="yes"/>
      <point x="186" y="31"/>
      <point x="109" y="112"/>
      <point x="109" y="232" type="curve" smooth="yes"/>
      <point x="109" y="353"/>
      <point x="187" y="436"/>
      <point x="299" y="436" type="curve" smooth="yes"/>
      <point x="410" y="436"/>
      <point x="489" y="362"/>
      <point x="489" y="257" type="curve" smooth="yes"/>
      <point x="489" y="119"/>
      <point x="415" y="31"/>
    </contour>
  </outline>
</glyph>
<glyph name="infinity" format="2">
  <advance width="600"/>
  <unicode hex="221E"/>
  <outline>
    <contour>
      <point x="172" y="161" type="curve" smooth="yes"/>
      <point x="216" y="161"/>
      <point x="269" y="187"/>
      <point x="300" y="243" type="curve"/>
      <point x="331" y="187"/>
      <point x="384" y="161"/>
      <point x="428" y="161" type="curve" smooth="yes"/>
      <point x="505" y="161"/>
      <point x="550" y="219"/>
      <point x="550" y="284" type="curve" smooth="yes"/>
      <point x="550" y="349"/>
      <point x="505" y="407"/>
      <point x="428" y="407" type="curve" smooth="yes"/>
      <point x="384" y="407"/>
      <point x="331" y="381"/>
      <point x="300" y="325" type="curve"/>
      <point x="269" y="381"/>
      <point x="216" y="407"/>
      <point x="172" y="407" type="curve" smooth="yes"/>
      <point x="95" y="407"/>
      <point x="50" y="349"/>
      <point x="50" y="284" type="curve" smooth="yes"/>
      <point x="50" y="219"/>
      <point x="95" y="161"/>
    </contour>
    <contour>
      <point x="171" y="197" type="curve" smooth="yes"/>
      <point x="120" y="197"/>
      <point x="90" y="236"/>
      <point x="90" y="284" type="curve" smooth="yes"/>
      <point x="90" y="332"/>
      <point x="120" y="371"/>
      <point x="171" y="371" type="curve" smooth="yes"/>
      <point x="205" y="371"/>
      <point x="247" y="361"/>
      <point x="282" y="285" type="curve"/>
      <point x="247" y="208"/>
      <point x="205" y="197"/>
    </contour>
    <contour>
      <point x="429" y="197" type="curve" smooth="yes"/>
      <point x="395" y="197"/>
      <point x="353" y="208"/>
      <point x="318" y="285" type="curve"/>
      <point x="353" y="361"/>
      <point x="395" y="371"/>
      <point x="429" y="371" type="curve" smooth="yes"/>
      <point x="480" y="371"/>
      <point x="510" y="332"/>
      <point x="510" y="284" type="curve" smooth="yes"/>
      <point x="510" y="236"/>
      <point x="480" y="197"/>
    </contour>
  </outline>
</glyph>
<glyph name="lessequal" format="2">
  <advance width="600"/>
  <unicode hex="2264"/>
  <outline>
    <contour>
      <point x="544" y="107" type="line"/>
      <point x="544" y="152" type="line"/>
      <point x="93" y="331" type="line"/>
      <point x="93" y="309" type="line"/>
      <point x="544" y="488" type="line"/>
      <point x="544" y="533" type="line"/>
      <point x="56" y="338" type="line"/>
      <point x="56" y="302" type="line"/>
    </contour>
    <contour>
      <point x="56" y="0" type="line"/>
      <point x="544" y="0" type="line"/>
      <point x="544" y="39" type="line"/>
      <point x="56" y="39" type="line"/>
    </contour>
  </outline>
</glyph>
<glyph name="dieresiscomb_acutecomb" format="2">
  <anchor x="0" y="484" name="_top"/>
  <outline>
    <contour>
      <point x="-18" y="650" type="line"/>
      <point x="18" y="650" type="line"/>
      <point x="134" y="800" type="line"/>
      <point x="80" y="800" type="line"/>
    </contour>
    <contour>
      <point x="-111" y="550" type="line"/>
      <point x="-50" y="550" type="line"/>
      <point x="-50" y="610" type="line"/>
      <point x="-111" y="610" type="line"/>
    </contour>
    <contour>
      <point x="50" y="550" type="line"/>
      <point x="111" y="550" type="line"/>
      <point x="111" y="610" type="line"/>
      <point x="50" y="610" type="line"/>
    </contour>
  </outline>
</glyph>
<glyph name="four.dnom" format="2">
  <advance width="380"/>
  <outline>
    <contour>
      <point x="243" y="0" type="line"/>
      <point x="281" y="0" type="line"/>
      <point x="281" y="94" type="line"/>
      <point x="348" y="94" type="line"/>
      <point x="348" y="131" type="line"/>
      <point x="281" y="131" type="line"/>
      <point x="281" y="423" type="line"/>
      <point x="249" y="423" type="line"/>
      <point x="46" y="127" type="line"/>
      <point x="46" y="94" type="line"/>
      <point x="243" y="94" type="line"/>
    </contour>
    <contour>
      <point x="243" y="131" type="line"/>
      <point x="79" y="131" type="line"/>
      <point x="79" y="116" type="line"/>
      <point x="252" y="367" type="line"/>
      <point x="243" y="367" type="line"/>
    </contour>
  </outline>
</glyph>
<glyph name="l.ss02" format="2">
  <advance width="212"/>
  <anchor x="106" y="0" name="bottom"/>
  <anchor x="106" y="357" name="center"/>
  <anchor x="213" y="357" name="dot"/>
  <anchor x="106" y="705" name="top"/>
  <anchor x="177" y="705" name="topright"/>
  <outline>
    <contour>
      <point x="85" y="0" type="line"/>
      <point x="127" y="0" type="line"/>
      <point x="127" y="705" type="line"/>
      <point x="85" y="705" type="line"/>
    </contour>
  </outline>
</glyph>
<glyph name="macroncomb_dieresiscomb" format="2">
  <anchor x="0" y="484" name="_top"/>
  <outline>
    <contour>
      <point x="-140" y="585" type="line"/>
      <point x="140" y="585" type="line"/>
      <point x="140" y="623" type="line"/>
      <point x="-140" y="623" type="line"/>
    </contour>
    <contour>
      <point x="-111" y="684" type="line"/>
      <point x="-50" y="684" type="line"/>
      <point x="-50" y="744" type="line"/>
      <point x="-111" y="744" type="line"/>
    </contour>
    <contour>
      <point x="50" y="684" type="line"/>
      <point x="111" y="684" type="line"/>
      <point x="111" y="744" type="line"/>
      <point x="50" y="744" type="line"/>
    </contour>
  </outline>
</glyph>
<glyph name="strokeshortcomb.t" format="2">
  <anchor x="0" y="245" name="_center"/>
  <outline>
    <contour>
      <point x="-123" y="226" type="line"/>
      <point x="122" y="226" type="line"/>
      <point x="122" y="262" type="line"/>
      <point x="-123" y="262" type="line"/>
    </contour>
  </outline>
</glyph>
